<svg xmlns="http://www.w3.org/2000/svg" xmlns:xlink="http://www.w3.org/1999/xlink" xmlns:inkscape="http://www.inkscape.org/namespaces/inkscape" version="1.1" width="2880" height="3600" viewBox="0 0 2880 3600">
<defs>
<clipPath id="clip_0">
<path transform="matrix(.001968504,0,0,.001968504,0,0)" d="M0 0H1463040V1828800H0V0Z"/>
</clipPath>
</defs>
<g>
<g clip-path="url(#clip_0)">
<path transform="matrix(.001968504,0,0,.001968504,0,0)" d="M0 0H1463040V1828800H0Z" fill-opacity=".8987" fill-rule="evenodd"/>
<path transform="matrix(.001968504,0,0,.001968504,0,0)" d="M2722213.3 846945H3297829.3V1206705H2722213.3Z" fill="#eeeeee" fill-rule="evenodd"/>
<path transform="matrix(.001968504,0,0,.001968504,0,0)" stroke-width="381" stroke-linecap="butt" stroke-linejoin="round" fill="none" stroke="#595959" d="M2722213.3 846945H3297829.3V1206705H2722213.3Z"/>
<path transform="matrix(.001968504,0,0,.001968504,0,0)" d="M6588 59314.04V59314.04C6588 30634.422 29837.422 7385 58517.04 7385H359190.98C372963.4 7385 386171.76 12856.079 395910.35 22594.665 405648.9 32333.249 411120 45541.6 411120 59314.04V267023.98C411120 295703.57 387870.57 318953 359190.98 318953H58517.04C29837.422 318953 6588 295703.57 6588 267023.98Z" fill="#f4cccc" fill-opacity=".2089" fill-rule="evenodd"/>
<path transform="matrix(.001968504,0,0,.001968504,0,0)" stroke-width="3048" stroke-linecap="butt" stroke-linejoin="round" fill="none" stroke="#f4cccc" d="M6588 59314.04V59314.04C6588 30634.422 29837.422 7385 58517.04 7385H359190.98C372963.4 7385 386171.76 12856.079 395910.35 22594.665 405648.9 32333.249 411120 45541.6 411120 59314.04V267023.98C411120 295703.57 387870.57 318953 359190.98 318953H58517.04C29837.422 318953 6588 295703.57 6588 267023.98Z"/>
<text fill="#f4cccc" xml:space="preserve" transform="matrix(.75 0 0 .75 42.90846 44.477357)" font-size="65.333339" font-family="Montserrat" font-style="italic"><tspan y="103.68195" x="215.34268 259.0507 303.21604 339.47605 380.44007 424.73609 464.19743">Encoder</tspan></text>
<text fill="#f4cccc" xml:space="preserve" transform="matrix(.75 0 0 .75 42.90846 44.477357)" font-size="65.333339" font-family="Montserrat" font-weight="bold" font-style="italic"><tspan y="103.68195" x="490.30873 508.79808 548.2594 591.44479 639.26876 683.1074 722.5688 741.0581"> LEVEL 1</tspan></text>
<text fill="#ffffff" xml:space="preserve" transform="matrix(.75 0 0 .75 42.90846 44.477357)" font-size="60" font-family="Arial" font-weight="bold"><tspan y="250.56195" x="210.91312 254.23313 290.83314 327.43315 360.79316 394.15318">Conv3D</tspan></text>
<text fill="#ffffff" xml:space="preserve" transform="matrix(.75 0 0 .75 42.90846 44.477357)" font-size="60" font-family="ArialMT"><tspan y="250.56195" x="437.61235 454.23234 474.21235 487.53236 520.89236 554.2523 587.6123 604.2323 620.8523 680.8523 697.4723 734.07229 754.05227"> (input &#x2192; F),</tspan></text>
<text fill="#ffffff" xml:space="preserve" transform="matrix(.75 0 0 .75 42.90846 44.477357)" font-size="60" font-family="Arial" font-style="italic"><tspan y="322.56196" x="242.4512 275.81123 310.79124 344.15126 379.13127">3&#x00d7;3&#x00d7;3</tspan></text>
<text fill="#ffffff" xml:space="preserve" transform="matrix(.75 0 0 .75 42.90846 44.477357)" font-size="60" font-family="ArialMT"><tspan y="322.56196" x="412.63676 429.25675">, </tspan></text>
<text fill="#ffffff" xml:space="preserve" transform="matrix(.75 0 0 .75 42.90846 44.477357)" font-size="60" font-family="Arial" font-style="italic"><tspan y="322.56196" x="445.9766 489.2966 522.6566 539.2766 552.5966 585.9566 615.9566 632.5766 672.5366 705.8966">ReflectPad</tspan></text>
<text fill="#ffffff" xml:space="preserve" transform="matrix(.75 0 0 .75 42.90846 44.477357)" font-size="60" font-family="Arial" font-weight="bold"><tspan y="466.56196" x="257.64164 300.96165 337.56166 374.16166 407.52168 440.88169">Conv3D</tspan></text>
<text fill="#ffffff" xml:space="preserve" transform="matrix(.75 0 0 .75 42.90846 44.477357)" font-size="60" font-family="ArialMT"><tspan y="466.56196" x="484.34086 500.96086 520.94088 557.54086 574.1608 634.1608 650.7808 687.3808 707.3608"> (F &#x2192; F),</tspan></text>
<text fill="#ffffff" xml:space="preserve" transform="matrix(.75 0 0 .75 42.90846 44.477357)" font-size="60" font-family="Arial" font-style="italic"><tspan y="538.56198" x="242.4512 275.81123 310.79124 344.15126 379.13127">3&#x00d7;3&#x00d7;3</tspan></text>
<text fill="#ffffff" xml:space="preserve" transform="matrix(.75 0 0 .75 42.90846 44.477357)" font-size="60" font-family="ArialMT"><tspan y="538.56198" x="412.63676 429.25675">, </tspan></text>
<text fill="#ffffff" xml:space="preserve" transform="matrix(.75 0 0 .75 42.90846 44.477357)" font-size="60" font-family="Arial" font-style="italic"><tspan y="538.56198" x="445.9766 489.2966 522.6566 539.2766 552.5966 585.9566 615.9566 632.5766 672.5366 705.8966">ReflectPad</tspan></text>
<text fill="#ffffff" xml:space="preserve" transform="matrix(.75 0 0 .75 42.90846 44.477357)" font-size="60" font-family="Arial" font-weight="bold"><tspan y="682.5619" x="230.293 271.393 304.75303 341.35304 381.31303 417.91304 454.51304 471.13304 504.49305">AvgPool3D</tspan></text>
<text fill="#ffffff" xml:space="preserve" transform="matrix(.75 0 0 .75 42.90846 44.477357)" font-size="60" font-family="ArialMT"><tspan y="682.5619" x="548.10549 564.72549">, </tspan></text>
<text fill="#ffffff" xml:space="preserve" transform="matrix(.75 0 0 .75 42.90846 44.477357)" font-size="60" font-family="Arial" font-style="italic"><tspan y="682.5619" x="581.4453 614.8053 649.7853 683.14529 718.12527">2&#x00d7;2&#x00d7;2</tspan></text>
<path transform="matrix(.001968504,0,0,.001968504,0,0)" d="M6588 437546.6V437546.6C6588 408866.98 29837.422 385617.57 58517.04 385617.57H359190.98C372963.4 385617.57 386171.76 391088.64 395910.35 400827.23 405648.9 410565.8 411120 423774.17 411120 437546.6V645256.5C411120 673936.1 387870.57 697185.59 359190.98 697185.59H58517.04C29837.422 697185.59 6588 673936.1 6588 645256.5Z" fill="#f4cccc" fill-opacity=".2089" fill-rule="evenodd"/>
<path transform="matrix(.001968504,0,0,.001968504,0,0)" stroke-width="3048" stroke-linecap="butt" stroke-linejoin="round" fill="none" stroke="#f4cccc" d="M6588 437546.6V437546.6C6588 408866.98 29837.422 385617.57 58517.04 385617.57H359190.98C372963.4 385617.57 386171.76 391088.64 395910.35 400827.23 405648.9 410565.8 411120 423774.17 411120 437546.6V645256.5C411120 673936.1 387870.57 697185.59 359190.98 697185.59H58517.04C29837.422 697185.59 6588 673936.1 6588 645256.5Z"/>
<text fill="#f4cccc" xml:space="preserve" transform="matrix(.75 0 0 .75 42.90846 789.02969)" font-size="65.333339" font-family="Montserrat" font-style="italic"><tspan y="103.68195" x="208.87522 252.58322 296.74858 333.00859 373.9726 418.26863 457.72996">Encoder</tspan></text>
<text fill="#f4cccc" xml:space="preserve" transform="matrix(.75 0 0 .75 42.90846 789.02969)" font-size="65.333339" font-family="Montserrat" font-weight="bold" font-style="italic"><tspan y="103.68195" x="483.84126 502.3306 541.79196 584.9773 632.8013 676.63998 716.1013 734.59066"> LEVEL 2</tspan></text>
<text fill="#ffffff" xml:space="preserve" transform="matrix(.75 0 0 .75 42.90846 789.02969)" font-size="60" font-family="Arial" font-weight="bold"><tspan y="250.56195" x="240.95706 284.27708 320.87709 357.47709 390.8371 424.1971">Conv3D</tspan></text>
<text fill="#ffffff" xml:space="preserve" transform="matrix(.75 0 0 .75 42.90846 789.02969)" font-size="60" font-family="ArialMT"><tspan y="250.56195" x="467.65629 484.27629 504.2563 540.85629 557.47628 617.47628 634.09628 667.45626 704.0562 724.0362"> (F &#x2192; 2F),</tspan></text>
<text fill="#ffffff" xml:space="preserve" transform="matrix(.75 0 0 .75 42.90846 789.02969)" font-size="60" font-family="Arial" font-style="italic"><tspan y="322.56196" x="242.4512 275.81123 310.79124 344.15126 379.13127">3&#x00d7;3&#x00d7;3</tspan></text>
<text fill="#ffffff" xml:space="preserve" transform="matrix(.75 0 0 .75 42.90846 789.02969)" font-size="60" font-family="ArialMT"><tspan y="322.56196" x="412.63676 429.25675">, </tspan></text>
<text fill="#ffffff" xml:space="preserve" transform="matrix(.75 0 0 .75 42.90846 789.02969)" font-size="60" font-family="Arial" font-style="italic"><tspan y="322.56196" x="445.9766 489.2966 522.6566 539.2766 552.5966 585.9566 615.9566 632.5766 672.5366 705.8966">ReflectPad</tspan></text>
<text fill="#ffffff" xml:space="preserve" transform="matrix(.75 0 0 .75 42.90846 789.02969)" font-size="60" font-family="Arial" font-weight="bold"><tspan y="466.56196" x="224.27249 267.5925 304.1925 340.7925 374.15254 407.51255">Conv3D</tspan></text>
<text fill="#ffffff" xml:space="preserve" transform="matrix(.75 0 0 .75 42.90846 789.02969)" font-size="60" font-family="ArialMT"><tspan y="466.56196" x="450.9717 467.5917 487.57173 520.9317 557.5317 574.1517 634.1517 650.77169 684.13168 720.7316 740.7116"> (2F &#x2192; 2F),</tspan></text>
<text fill="#ffffff" xml:space="preserve" transform="matrix(.75 0 0 .75 42.90846 789.02969)" font-size="60" font-family="Arial" font-style="italic"><tspan y="538.56198" x="242.4512 275.81123 310.79124 344.15126 379.13127">3&#x00d7;3&#x00d7;3</tspan></text>
<text fill="#ffffff" xml:space="preserve" transform="matrix(.75 0 0 .75 42.90846 789.02969)" font-size="60" font-family="ArialMT"><tspan y="538.56198" x="412.63676 429.25675">, </tspan></text>
<text fill="#ffffff" xml:space="preserve" transform="matrix(.75 0 0 .75 42.90846 789.02969)" font-size="60" font-family="Arial" font-style="italic"><tspan y="538.56198" x="445.9766 489.2966 522.6566 539.2766 552.5966 585.9566 615.9566 632.5766 672.5366 705.8966">ReflectPad</tspan></text>
<text fill="#ffffff" xml:space="preserve" transform="matrix(.75 0 0 .75 42.90846 789.02969)" font-size="60" font-family="Arial" font-weight="bold"><tspan y="682.5619" x="230.293 271.393 304.75303 341.35304 381.31303 417.91304 454.51304 471.13304 504.49305">AvgPool3D</tspan></text>
<text fill="#ffffff" xml:space="preserve" transform="matrix(.75 0 0 .75 42.90846 789.02969)" font-size="60" font-family="ArialMT"><tspan y="682.5619" x="548.10549 564.72549">, </tspan></text>
<text fill="#ffffff" xml:space="preserve" transform="matrix(.75 0 0 .75 42.90846 789.02969)" font-size="60" font-family="Arial" font-style="italic"><tspan y="682.5619" x="581.4453 614.8053 649.7853 683.14529 718.12527">2&#x00d7;2&#x00d7;2</tspan></text>
<path transform="matrix(.001968504,0,0,.001968504,0,0)" d="M6588 815779.2V815779.2C6588 787099.59 29837.422 763850.1 58517.04 763850.1H359190.98C372963.4 763850.1 386171.76 769321.2 395910.35 779059.8 405648.9 788798.4 411120 802006.78 411120 815779.2V1023489.09C411120 1052168.8 387870.57 1075418.1 359190.98 1075418.1H58517.04C29837.422 1075418.1 6588 1052168.8 6588 1023489.09Z" fill="#f4cccc" fill-opacity=".2089" fill-rule="evenodd"/>
<path transform="matrix(.001968504,0,0,.001968504,0,0)" stroke-width="3048" stroke-linecap="butt" stroke-linejoin="round" fill="none" stroke="#f4cccc" d="M6588 815779.2V815779.2C6588 787099.59 29837.422 763850.1 58517.04 763850.1H359190.98C372963.4 763850.1 386171.76 769321.2 395910.35 779059.8 405648.9 788798.4 411120 802006.78 411120 815779.2V1023489.09C411120 1052168.8 387870.57 1075418.1 359190.98 1075418.1H58517.04C29837.422 1075418.1 6588 1052168.8 6588 1023489.09Z"/>
<text fill="#f4cccc" xml:space="preserve" transform="matrix(.75 0 0 .75 42.90846 1533.5819)" font-size="65.333339" font-family="Montserrat" font-style="italic"><tspan y="103.68195" x="208.80985 252.51786 296.6832 332.9432 373.90724 418.20326 457.66459">Encoder</tspan></text>
<text fill="#f4cccc" xml:space="preserve" transform="matrix(.75 0 0 .75 42.90846 1533.5819)" font-size="65.333339" font-family="Montserrat" font-weight="bold" font-style="italic"><tspan y="103.68195" x="483.77589 502.26524 541.72659 584.9119 632.7359 676.5746 716.03598 734.52529"> LEVEL 3</tspan></text>
<text fill="#ffffff" xml:space="preserve" transform="matrix(.75 0 0 .75 42.90846 1533.5819)" font-size="60" font-family="Arial" font-weight="bold"><tspan y="250.56195" x="224.27249 267.5925 304.1925 340.7925 374.15254 407.51255">Conv3D</tspan></text>
<text fill="#ffffff" xml:space="preserve" transform="matrix(.75 0 0 .75 42.90846 1533.5819)" font-size="60" font-family="ArialMT"><tspan y="250.56195" x="450.9717 467.5917 487.57173 520.9317 557.5317 574.1517 634.1517 650.77169 684.13168 720.7316 740.7116"> (2F &#x2192; 4F),</tspan></text>
<text fill="#ffffff" xml:space="preserve" transform="matrix(.75 0 0 .75 42.90846 1533.5819)" font-size="60" font-family="Arial" font-style="italic"><tspan y="322.56196" x="242.4512 275.81123 310.79124 344.15126 379.13127">3&#x00d7;3&#x00d7;3</tspan></text>
<text fill="#ffffff" xml:space="preserve" transform="matrix(.75 0 0 .75 42.90846 1533.5819)" font-size="60" font-family="ArialMT"><tspan y="322.56196" x="412.63676 429.25675">, </tspan></text>
<text fill="#ffffff" xml:space="preserve" transform="matrix(.75 0 0 .75 42.90846 1533.5819)" font-size="60" font-family="Arial" font-style="italic"><tspan y="322.56196" x="445.9766 489.2966 522.6566 539.2766 552.5966 585.9566 615.9566 632.5766 672.5366 705.8966">ReflectPad</tspan></text>
<text fill="#ffffff" xml:space="preserve" transform="matrix(.75 0 0 .75 42.90846 1533.5819)" font-size="60" font-family="Arial" font-weight="bold"><tspan y="466.56196" x="224.27249 267.5925 304.1925 340.7925 374.15254 407.51255">Conv3D</tspan></text>
<text fill="#ffffff" xml:space="preserve" transform="matrix(.75 0 0 .75 42.90846 1533.5819)" font-size="60" font-family="ArialMT"><tspan y="466.56196" x="450.9717 467.5917 487.57173 520.9317 557.5317 574.1517 634.1517 650.77169 684.13168 720.7316 740.7116"> (4F &#x2192; 4F),</tspan></text>
<text fill="#ffffff" xml:space="preserve" transform="matrix(.75 0 0 .75 42.90846 1533.5819)" font-size="60" font-family="Arial" font-style="italic"><tspan y="538.56198" x="242.4512 275.81123 310.79124 344.15126 379.13127">3&#x00d7;3&#x00d7;3</tspan></text>
<text fill="#ffffff" xml:space="preserve" transform="matrix(.75 0 0 .75 42.90846 1533.5819)" font-size="60" font-family="ArialMT"><tspan y="538.56198" x="412.63676 429.25675">, </tspan></text>
<text fill="#ffffff" xml:space="preserve" transform="matrix(.75 0 0 .75 42.90846 1533.5819)" font-size="60" font-family="Arial" font-style="italic"><tspan y="538.56198" x="445.9766 489.2966 522.6566 539.2766 552.5966 585.9566 615.9566 632.5766 672.5366 705.8966">ReflectPad</tspan></text>
<text fill="#ffffff" xml:space="preserve" transform="matrix(.75 0 0 .75 42.90846 1533.5819)" font-size="60" font-family="Arial" font-weight="bold"><tspan y="682.5619" x="230.293 271.393 304.75303 341.35304 381.31303 417.91304 454.51304 471.13304 504.49305">AvgPool3D</tspan></text>
<text fill="#ffffff" xml:space="preserve" transform="matrix(.75 0 0 .75 42.90846 1533.5819)" font-size="60" font-family="ArialMT"><tspan y="682.5619" x="548.10549 564.72549">, </tspan></text>
<text fill="#ffffff" xml:space="preserve" transform="matrix(.75 0 0 .75 42.90846 1533.5819)" font-size="60" font-family="Arial" font-style="italic"><tspan y="682.5619" x="581.4453 614.8053 649.7853 683.14529 718.12527">2&#x00d7;2&#x00d7;2</tspan></text>
<path transform="matrix(.001968504,0,0,.001968504,0,0)" d="M6588 1194011.8V1194011.8C6588 1165332.1 29837.422 1142082.6 58517.04 1142082.6H359190.98C372963.4 1142082.6 386171.76 1147553.8 395910.35 1157292.4 405648.9 1167030.9 411120 1180239.3 411120 1194011.8V1401721.6C411120 1430401.3 387870.57 1453650.6 359190.98 1453650.6H58517.04C29837.422 1453650.6 6588 1430401.3 6588 1401721.6Z" fill="#f4cccc" fill-opacity=".2089" fill-rule="evenodd"/>
<path transform="matrix(.001968504,0,0,.001968504,0,0)" stroke-width="3048" stroke-linecap="butt" stroke-linejoin="round" fill="none" stroke="#f4cccc" d="M6588 1194011.8V1194011.8C6588 1165332.1 29837.422 1142082.6 58517.04 1142082.6H359190.98C372963.4 1142082.6 386171.76 1147553.8 395910.35 1157292.4 405648.9 1167030.9 411120 1180239.3 411120 1194011.8V1401721.6C411120 1430401.3 387870.57 1453650.6 359190.98 1453650.6H58517.04C29837.422 1453650.6 6588 1430401.3 6588 1401721.6Z"/>
<text fill="#f4cccc" xml:space="preserve" transform="matrix(.75 0 0 .75 42.90846 2278.1343)" font-size="65.333339" font-family="Montserrat" font-style="italic"><tspan y="101.68195" x="205.64145 249.34946 293.5148 329.7748 370.73884 415.03486 454.4962">Encoder</tspan></text>
<text fill="#f4cccc" xml:space="preserve" transform="matrix(.75 0 0 .75 42.90846 2278.1343)" font-size="65.333339" font-family="Montserrat" font-weight="bold" font-style="italic"><tspan y="101.68195" x="480.60749 499.09684 538.55819 581.7435 629.5675 673.4062 712.86758 731.3569"> LEVEL 4</tspan></text>
<text fill="#ffffff" xml:space="preserve" transform="matrix(.75 0 0 .75 42.90846 2278.1343)" font-size="60" font-family="Arial" font-weight="bold"><tspan y="252.56195" x="224.27249 267.5925 304.1925 340.7925 374.15254 407.51255">Conv3D</tspan></text>
<text fill="#ffffff" xml:space="preserve" transform="matrix(.75 0 0 .75 42.90846 2278.1343)" font-size="60" font-family="ArialMT"><tspan y="252.56195" x="450.9717 467.5917 487.57173 520.9317 557.5317 574.1517 634.1517 650.77169 684.13168 720.7316 740.7116"> (4F &#x2192; 8F),</tspan></text>
<text fill="#ffffff" xml:space="preserve" transform="matrix(.75 0 0 .75 42.90846 2278.1343)" font-size="60" font-family="Arial" font-style="italic"><tspan y="324.56196" x="242.4512 275.81123 310.79124 344.15126 379.13127">3&#x00d7;3&#x00d7;3</tspan></text>
<text fill="#ffffff" xml:space="preserve" transform="matrix(.75 0 0 .75 42.90846 2278.1343)" font-size="60" font-family="ArialMT"><tspan y="324.56196" x="412.63676 429.25675">, </tspan></text>
<text fill="#ffffff" xml:space="preserve" transform="matrix(.75 0 0 .75 42.90846 2278.1343)" font-size="60" font-family="Arial" font-style="italic"><tspan y="324.56196" x="445.9766 489.2966 522.6566 539.2766 552.5966 585.9566 615.9566 632.5766 672.5366 705.8966">ReflectPad</tspan></text>
<text fill="#ffffff" xml:space="preserve" transform="matrix(.75 0 0 .75 42.90846 2278.1343)" font-size="60" font-family="Arial" font-weight="bold"><tspan y="468.56196" x="224.27249 267.5925 304.1925 340.7925 374.15254 407.51255">Conv3D</tspan></text>
<text fill="#ffffff" xml:space="preserve" transform="matrix(.75 0 0 .75 42.90846 2278.1343)" font-size="60" font-family="ArialMT"><tspan y="468.56196" x="450.9717 467.5917 487.57173 520.9317 557.5317 574.1517 634.1517 650.77169 684.13168 720.7316 740.7116"> (8F &#x2192; 8F),</tspan></text>
<text fill="#ffffff" xml:space="preserve" transform="matrix(.75 0 0 .75 42.90846 2278.1343)" font-size="60" font-family="Arial" font-style="italic"><tspan y="540.56198" x="242.4512 275.81123 310.79124 344.15126 379.13127">3&#x00d7;3&#x00d7;3</tspan></text>
<text fill="#ffffff" xml:space="preserve" transform="matrix(.75 0 0 .75 42.90846 2278.1343)" font-size="60" font-family="ArialMT"><tspan y="540.56198" x="412.63676 429.25675">, </tspan></text>
<text fill="#ffffff" xml:space="preserve" transform="matrix(.75 0 0 .75 42.90846 2278.1343)" font-size="60" font-family="Arial" font-style="italic"><tspan y="540.56198" x="445.9766 489.2966 522.6566 539.2766 552.5966 585.9566 615.9566 632.5766 672.5366 705.8966">ReflectPad</tspan></text>
<text fill="#ffffff" xml:space="preserve" transform="matrix(.75 0 0 .75 42.90846 2278.1343)" font-size="60" font-family="Arial" font-weight="bold"><tspan y="684.5619" x="230.293 271.393 304.75303 341.35304 381.31303 417.91304 454.51304 471.13304 504.49305">AvgPool3D</tspan></text>
<text fill="#ffffff" xml:space="preserve" transform="matrix(.75 0 0 .75 42.90846 2278.1343)" font-size="60" font-family="ArialMT"><tspan y="684.5619" x="548.10549 564.72549">, </tspan></text>
<text fill="#ffffff" xml:space="preserve" transform="matrix(.75 0 0 .75 42.90846 2278.1343)" font-size="60" font-family="Arial" font-style="italic"><tspan y="684.5619" x="581.4453 614.8053 649.7853 683.14529 718.12527">2&#x00d7;2&#x00d7;2</tspan></text>
<path transform="matrix(.001968504,0,0,.001968504,0,0)" d="M460062.79 1297861.6H981522.78" fill-opacity="0" fill-rule="evenodd"/>
<path transform="matrix(.001968504,0,0,.001968504,0,0)" stroke-width="3048" stroke-linecap="butt" stroke-dasharray="12192,9144" stroke-linejoin="round" fill="none" stroke="#d9d9d9" d="M460062.79 1297861.6H963234.78"/>
<path transform="matrix(.001968504,0,0,.001968504,0,0)" d="M963234.78 1302896.1 977066.9 1297861.6 963234.78 1292827.1Z" fill="#d9d9d9" fill-rule="evenodd"/>
<path transform="matrix(.001968504,0,0,.001968504,0,0)" stroke-width="3048" stroke-linecap="butt" stroke-miterlimit="10" stroke-linejoin="miter" fill="none" stroke="#d9d9d9" d="M963234.78 1302896.1 977066.9 1297861.6 963234.78 1292827.1Z"/>
<path transform="matrix(.001968504,0,0,.001968504,0,0)" d="M1030375 59314.04V59314.04C1030375 30634.422 1053624.4 7385 1082304 7385H1382978C1396750.4 7385 1409958.8 12856.079 1419697.4 22594.665 1429435.9 32333.249 1434907 45541.6 1434907 59314.04V267023.98C1434907 295703.57 1411657.6 318953 1382978 318953H1082304C1053624.4 318953 1030375 295703.57 1030375 267023.98Z" fill="#c9daf8" fill-opacity=".2278" fill-rule="evenodd"/>
<path transform="matrix(.001968504,0,0,.001968504,0,0)" stroke-width="3048" stroke-linecap="butt" stroke-linejoin="round" fill="none" stroke="#c9daf8" d="M1030375 59314.04V59314.04C1030375 30634.422 1053624.4 7385 1082304 7385H1382978C1396750.4 7385 1409958.8 12856.079 1419697.4 22594.665 1429435.9 32333.249 1434907 45541.6 1434907 59314.04V267023.98C1434907 295703.57 1411657.6 318953 1382978 318953H1082304C1053624.4 318953 1030375 295703.57 1030375 267023.98Z"/>
<text fill="#cfe2f3" xml:space="preserve" transform="matrix(.75 0 0 .75 2058.237 44.477357)" font-size="65.333339" font-family="Montserrat" font-style="italic"><tspan y="67.68195" x="202.86502 256.83036 296.2917 332.55168 373.5157 417.8117 457.27305">Decoder</tspan></text>
<text fill="#cfe2f3" xml:space="preserve" transform="matrix(.75 0 0 .75 2058.237 44.477357)" font-size="65.333339" font-family="Montserrat" font-weight="bold" font-style="italic"><tspan y="67.68195" x="483.38395 501.8733 541.33468 584.52 632.344 676.1827 715.64407 734.13339"> LEVEL 4</tspan></text>
<text fill="#ffffff" xml:space="preserve" transform="matrix(.75 0 0 .75 2058.237 44.477357)" font-size="60" font-family="Arial" font-weight="bold"><tspan y="214.56195" x="144.23343 187.55344 224.15345 260.75346 294.11347 327.41349 350.75349 384.1135 420.7135 454.07353 487.43354">ConvTrans3D</tspan></text>
<text fill="#ffffff" xml:space="preserve" transform="matrix(.75 0 0 .75 2058.237 44.477357)" font-size="60" font-family="ArialMT"><tspan y="214.56195" x="531.01077 547.63076 567.6107 600.9707 637.5707 654.1907 714.1907 730.81069 764.17068 800.7706 820.7506"> (2F &#x2192; 1F),</tspan></text>
<text fill="#ffffff" xml:space="preserve" transform="matrix(.75 0 0 .75 2058.237 44.477357)" font-size="60" font-family="Arial" font-style="italic"><tspan y="286.56196" x="169.12113 202.48113 237.46112 270.82115 305.80116 339.16117 355.78117">2&#x00d7;2&#x00d7;2 [</tspan></text>
<text fill="#ffffff" xml:space="preserve" transform="matrix(.75 0 0 .75 2058.237 44.477357)" font-size="60" font-family="Arial" font-weight="bold" font-style="italic"><tspan y="286.56196" x="372.6465 415.96653 452.56654 489.16654 522.52658 555.88656 575.8665 592.4865 629.0865 662.4465 695.80648 729.16647 745.78646 762.40646">Concat Level 1</tspan></text>
<text fill="#ffffff" xml:space="preserve" transform="matrix(.75 0 0 .75 2058.237 44.477357)" font-size="60" font-family="Arial" font-style="italic"><tspan y="286.56196" x="796.1328">]</tspan></text>
<text fill="#ffffff" xml:space="preserve" transform="matrix(.75 0 0 .75 2058.237 44.477357)" font-size="60" font-family="Arial" font-weight="bold"><tspan y="430.56196" x="224.27249 267.5925 304.1925 340.7925 374.15254 407.51255">Conv3D</tspan></text>
<text fill="#ffffff" xml:space="preserve" transform="matrix(.75 0 0 .75 2058.237 44.477357)" font-size="60" font-family="ArialMT"><tspan y="430.56196" x="450.9717 467.5917 487.57173 520.9317 557.5317 574.1517 634.1517 650.77169 684.13168 720.7316 740.7116"> (2F &#x2192; 1F),</tspan></text>
<text fill="#ffffff" xml:space="preserve" transform="matrix(.75 0 0 .75 2058.237 44.477357)" font-size="60" font-family="Arial" font-style="italic"><tspan y="502.56196" x="242.4512 275.81123 310.79124 344.15126 379.13127">3&#x00d7;3&#x00d7;3</tspan></text>
<text fill="#ffffff" xml:space="preserve" transform="matrix(.75 0 0 .75 2058.237 44.477357)" font-size="60" font-family="ArialMT"><tspan y="502.56196" x="412.63676 429.25675">, </tspan></text>
<text fill="#ffffff" xml:space="preserve" transform="matrix(.75 0 0 .75 2058.237 44.477357)" font-size="60" font-family="Arial" font-style="italic"><tspan y="502.56196" x="445.9766 489.2966 522.6566 539.2766 552.5966 585.9566 615.9566 632.5766 672.5366 705.8966">ReflectPad</tspan></text>
<text fill="#ffffff" xml:space="preserve" transform="matrix(.75 0 0 .75 2058.237 44.477357)" font-size="60" font-family="Arial" font-weight="bold"><tspan y="646.5619" x="224.27249 267.5925 304.1925 340.7925 374.15254 407.51255">Conv3D</tspan></text>
<text fill="#ffffff" xml:space="preserve" transform="matrix(.75 0 0 .75 2058.237 44.477357)" font-size="60" font-family="ArialMT"><tspan y="646.5619" x="450.9717 467.5917 487.57173 520.9317 557.5317 574.1517 634.1517 650.77169 684.13168 720.7316 740.7116"> (1F &#x2192; 1F),</tspan></text>
<text fill="#ffffff" xml:space="preserve" transform="matrix(.75 0 0 .75 2058.237 44.477357)" font-size="60" font-family="Arial" font-style="italic"><tspan y="718.5619" x="242.4512 275.81123 310.79124 344.15126 379.13127">3&#x00d7;3&#x00d7;3</tspan></text>
<text fill="#ffffff" xml:space="preserve" transform="matrix(.75 0 0 .75 2058.237 44.477357)" font-size="60" font-family="ArialMT"><tspan y="718.5619" x="412.63676 429.25675">, </tspan></text>
<text fill="#ffffff" xml:space="preserve" transform="matrix(.75 0 0 .75 2058.237 44.477357)" font-size="60" font-family="Arial" font-style="italic"><tspan y="718.5619" x="445.9766 489.2966 522.6566 539.2766 552.5966 585.9566 615.9566 632.5766 672.5366 705.8966">ReflectPad</tspan></text>
<path transform="matrix(.001968504,0,0,.001968504,0,0)" d="M1030375 437546.6V437546.6C1030375 408866.98 1053624.4 385617.57 1082304 385617.57H1382978C1396750.4 385617.57 1409958.8 391088.64 1419697.4 400827.23 1429435.9 410565.8 1434907 423774.17 1434907 437546.6V645256.5C1434907 673936.1 1411657.6 697185.59 1382978 697185.59H1082304C1053624.4 697185.59 1030375 673936.1 1030375 645256.5Z" fill="#c9daf8" fill-opacity=".2278" fill-rule="evenodd"/>
<path transform="matrix(.001968504,0,0,.001968504,0,0)" stroke-width="3048" stroke-linecap="butt" stroke-linejoin="round" fill="none" stroke="#c9daf8" d="M1030375 437546.6V437546.6C1030375 408866.98 1053624.4 385617.57 1082304 385617.57H1382978C1396750.4 385617.57 1409958.8 391088.64 1419697.4 400827.23 1429435.9 410565.8 1434907 423774.17 1434907 437546.6V645256.5C1434907 673936.1 1411657.6 697185.59 1382978 697185.59H1082304C1053624.4 697185.59 1030375 673936.1 1030375 645256.5Z"/>
<text fill="#cfe2f3" xml:space="preserve" transform="matrix(.75 0 0 .75 2058.237 789.02969)" font-size="65.333339" font-family="Montserrat" font-style="italic"><tspan y="67.68195" x="206.03342 259.99876 299.46009 335.72007 376.68409 420.9801 460.44145">Decoder</tspan></text>
<text fill="#cfe2f3" xml:space="preserve" transform="matrix(.75 0 0 .75 2058.237 789.02969)" font-size="65.333339" font-family="Montserrat" font-weight="bold" font-style="italic"><tspan y="67.68195" x="486.55235 505.0417 544.50308 587.6884 635.5124 679.3511 718.81246 737.30178"> LEVEL 3</tspan></text>
<text fill="#ffffff" xml:space="preserve" transform="matrix(.75 0 0 .75 2058.237 789.02969)" font-size="60" font-family="Arial" font-weight="bold"><tspan y="214.56195" x="144.23343 187.55344 224.15345 260.75346 294.11347 327.41349 350.75349 384.1135 420.7135 454.07353 487.43354">ConvTrans3D</tspan></text>
<text fill="#ffffff" xml:space="preserve" transform="matrix(.75 0 0 .75 2058.237 789.02969)" font-size="60" font-family="ArialMT"><tspan y="214.56195" x="531.01077 547.63076 567.6107 600.9707 637.5707 654.1907 714.1907 730.81069 764.17068 800.7706 820.7506"> (4F &#x2192; 2F),</tspan></text>
<text fill="#ffffff" xml:space="preserve" transform="matrix(.75 0 0 .75 2058.237 789.02969)" font-size="60" font-family="Arial" font-style="italic"><tspan y="286.56196" x="169.12113 202.48113 237.46112 270.82115 305.80116 339.16117 355.78117">2&#x00d7;2&#x00d7;2 [</tspan></text>
<text fill="#ffffff" xml:space="preserve" transform="matrix(.75 0 0 .75 2058.237 789.02969)" font-size="60" font-family="Arial" font-weight="bold" font-style="italic"><tspan y="286.56196" x="372.6465 415.96653 452.56654 489.16654 522.52658 555.88656 575.8665 592.4865 629.0865 662.4465 695.80648 729.16647 745.78646 762.40646">Concat Level 2</tspan></text>
<text fill="#ffffff" xml:space="preserve" transform="matrix(.75 0 0 .75 2058.237 789.02969)" font-size="60" font-family="Arial" font-style="italic"><tspan y="286.56196" x="796.1328">]</tspan></text>
<text fill="#ffffff" xml:space="preserve" transform="matrix(.75 0 0 .75 2058.237 789.02969)" font-size="60" font-family="Arial" font-weight="bold"><tspan y="430.56196" x="224.27249 267.5925 304.1925 340.7925 374.15254 407.51255">Conv3D</tspan></text>
<text fill="#ffffff" xml:space="preserve" transform="matrix(.75 0 0 .75 2058.237 789.02969)" font-size="60" font-family="ArialMT"><tspan y="430.56196" x="450.9717 467.5917 487.57173 520.9317 557.5317 574.1517 634.1517 650.77169 684.13168 720.7316 740.7116"> (4F &#x2192; 2F),</tspan></text>
<text fill="#ffffff" xml:space="preserve" transform="matrix(.75 0 0 .75 2058.237 789.02969)" font-size="60" font-family="Arial" font-style="italic"><tspan y="502.56196" x="242.4512 275.81123 310.79124 344.15126 379.13127">3&#x00d7;3&#x00d7;3</tspan></text>
<text fill="#ffffff" xml:space="preserve" transform="matrix(.75 0 0 .75 2058.237 789.02969)" font-size="60" font-family="ArialMT"><tspan y="502.56196" x="412.63676 429.25675">, </tspan></text>
<text fill="#ffffff" xml:space="preserve" transform="matrix(.75 0 0 .75 2058.237 789.02969)" font-size="60" font-family="Arial" font-style="italic"><tspan y="502.56196" x="445.9766 489.2966 522.6566 539.2766 552.5966 585.9566 615.9566 632.5766 672.5366 705.8966">ReflectPad</tspan></text>
<text fill="#ffffff" xml:space="preserve" transform="matrix(.75 0 0 .75 2058.237 789.02969)" font-size="60" font-family="Arial" font-weight="bold"><tspan y="646.5619" x="224.27249 267.5925 304.1925 340.7925 374.15254 407.51255">Conv3D</tspan></text>
<text fill="#ffffff" xml:space="preserve" transform="matrix(.75 0 0 .75 2058.237 789.02969)" font-size="60" font-family="ArialMT"><tspan y="646.5619" x="450.9717 467.5917 487.57173 520.9317 557.5317 574.1517 634.1517 650.77169 684.13168 720.7316 740.7116"> (2F &#x2192; 2F),</tspan></text>
<text fill="#ffffff" xml:space="preserve" transform="matrix(.75 0 0 .75 2058.237 789.02969)" font-size="60" font-family="Arial" font-style="italic"><tspan y="718.5619" x="242.4512 275.81123 310.79124 344.15126 379.13127">3&#x00d7;3&#x00d7;3</tspan></text>
<text fill="#ffffff" xml:space="preserve" transform="matrix(.75 0 0 .75 2058.237 789.02969)" font-size="60" font-family="ArialMT"><tspan y="718.5619" x="412.63676 429.25675">, </tspan></text>
<text fill="#ffffff" xml:space="preserve" transform="matrix(.75 0 0 .75 2058.237 789.02969)" font-size="60" font-family="Arial" font-style="italic"><tspan y="718.5619" x="445.9766 489.2966 522.6566 539.2766 552.5966 585.9566 615.9566 632.5766 672.5366 705.8966">ReflectPad</tspan></text>
<path transform="matrix(.001968504,0,0,.001968504,0,0)" d="M1030375 815779.2V815779.2C1030375 787099.59 1053624.4 763850.1 1082304 763850.1H1382978C1396750.4 763850.1 1409958.8 769321.2 1419697.4 779059.8 1429435.9 788798.4 1434907 802006.78 1434907 815779.2V1023489.09C1434907 1052168.8 1411657.6 1075418.1 1382978 1075418.1H1082304C1053624.4 1075418.1 1030375 1052168.8 1030375 1023489.09Z" fill="#c9daf8" fill-opacity=".2278" fill-rule="evenodd"/>
<path transform="matrix(.001968504,0,0,.001968504,0,0)" stroke-width="3048" stroke-linecap="butt" stroke-linejoin="round" fill="none" stroke="#c9daf8" d="M1030375 815779.2V815779.2C1030375 787099.59 1053624.4 763850.1 1082304 763850.1H1382978C1396750.4 763850.1 1409958.8 769321.2 1419697.4 779059.8 1429435.9 788798.4 1434907 802006.78 1434907 815779.2V1023489.09C1434907 1052168.8 1411657.6 1075418.1 1382978 1075418.1H1082304C1053624.4 1075418.1 1030375 1052168.8 1030375 1023489.09Z"/>
<text fill="#cfe2f3" xml:space="preserve" transform="matrix(.75 0 0 .75 2058.237 1533.5819)" font-size="65.333339" font-family="Montserrat" font-style="italic"><tspan y="67.68195" x="206.09876 260.0641 299.52543 335.78544 376.74946 421.04548 460.5068">Decoder</tspan></text>
<text fill="#cfe2f3" xml:space="preserve" transform="matrix(.75 0 0 .75 2058.237 1533.5819)" font-size="65.333339" font-family="Montserrat" font-weight="bold" font-style="italic"><tspan y="67.68195" x="486.61769 505.10704 544.56838 587.7537 635.5777 679.4164 718.87777 737.36709"> LEVEL 2</tspan></text>
<text fill="#ffffff" xml:space="preserve" transform="matrix(.75 0 0 .75 2058.237 1533.5819)" font-size="60" font-family="Arial" font-weight="bold"><tspan y="214.56195" x="144.23343 187.55344 224.15345 260.75346 294.11347 327.41349 350.75349 384.1135 420.7135 454.07353 487.43354">ConvTrans3D</tspan></text>
<text fill="#ffffff" xml:space="preserve" transform="matrix(.75 0 0 .75 2058.237 1533.5819)" font-size="60" font-family="ArialMT"><tspan y="214.56195" x="531.01077 547.63076 567.6107 600.9707 637.5707 654.1907 714.1907 730.81069 764.17068 800.7706 820.7506"> (8F &#x2192; 4F),</tspan></text>
<text fill="#ffffff" xml:space="preserve" transform="matrix(.75 0 0 .75 2058.237 1533.5819)" font-size="60" font-family="Arial" font-style="italic"><tspan y="286.56196" x="169.12113 202.48113 237.46112 270.82115 305.80116 339.16117 355.78117">2&#x00d7;2&#x00d7;2 [</tspan></text>
<text fill="#ffffff" xml:space="preserve" transform="matrix(.75 0 0 .75 2058.237 1533.5819)" font-size="60" font-family="Arial" font-weight="bold" font-style="italic"><tspan y="286.56196" x="372.6465 415.96653 452.56654 489.16654 522.52658 555.88656 575.8665 592.4865 629.0865 662.4465 695.80648 729.16647 745.78646 762.40646">Concat Level 3</tspan></text>
<text fill="#ffffff" xml:space="preserve" transform="matrix(.75 0 0 .75 2058.237 1533.5819)" font-size="60" font-family="Arial" font-style="italic"><tspan y="286.56196" x="796.1328">]</tspan></text>
<text fill="#ffffff" xml:space="preserve" transform="matrix(.75 0 0 .75 2058.237 1533.5819)" font-size="60" font-family="Arial" font-weight="bold"><tspan y="430.56196" x="224.27249 267.5925 304.1925 340.7925 374.15254 407.51255">Conv3D</tspan></text>
<text fill="#ffffff" xml:space="preserve" transform="matrix(.75 0 0 .75 2058.237 1533.5819)" font-size="60" font-family="ArialMT"><tspan y="430.56196" x="450.9717 467.5917 487.57173 520.9317 557.5317 574.1517 634.1517 650.77169 684.13168 720.7316 740.7116"> (8F &#x2192; 4F),</tspan></text>
<text fill="#ffffff" xml:space="preserve" transform="matrix(.75 0 0 .75 2058.237 1533.5819)" font-size="60" font-family="Arial" font-style="italic"><tspan y="502.56196" x="242.4512 275.81123 310.79124 344.15126 379.13127">3&#x00d7;3&#x00d7;3</tspan></text>
<text fill="#ffffff" xml:space="preserve" transform="matrix(.75 0 0 .75 2058.237 1533.5819)" font-size="60" font-family="ArialMT"><tspan y="502.56196" x="412.63676 429.25675">, </tspan></text>
<text fill="#ffffff" xml:space="preserve" transform="matrix(.75 0 0 .75 2058.237 1533.5819)" font-size="60" font-family="Arial" font-style="italic"><tspan y="502.56196" x="445.9766 489.2966 522.6566 539.2766 552.5966 585.9566 615.9566 632.5766 672.5366 705.8966">ReflectPad</tspan></text>
<text fill="#ffffff" xml:space="preserve" transform="matrix(.75 0 0 .75 2058.237 1533.5819)" font-size="60" font-family="Arial" font-weight="bold"><tspan y="646.5619" x="224.27249 267.5925 304.1925 340.7925 374.15254 407.51255">Conv3D</tspan></text>
<text fill="#ffffff" xml:space="preserve" transform="matrix(.75 0 0 .75 2058.237 1533.5819)" font-size="60" font-family="ArialMT"><tspan y="646.5619" x="450.9717 467.5917 487.57173 520.9317 557.5317 574.1517 634.1517 650.77169 684.13168 720.7316 740.7116"> (4F &#x2192; 4F),</tspan></text>
<text fill="#ffffff" xml:space="preserve" transform="matrix(.75 0 0 .75 2058.237 1533.5819)" font-size="60" font-family="Arial" font-style="italic"><tspan y="718.5619" x="242.4512 275.81123 310.79124 344.15126 379.13127">3&#x00d7;3&#x00d7;3</tspan></text>
<text fill="#ffffff" xml:space="preserve" transform="matrix(.75 0 0 .75 2058.237 1533.5819)" font-size="60" font-family="ArialMT"><tspan y="718.5619" x="412.63676 429.25675">, </tspan></text>
<text fill="#ffffff" xml:space="preserve" transform="matrix(.75 0 0 .75 2058.237 1533.5819)" font-size="60" font-family="Arial" font-style="italic"><tspan y="718.5619" x="445.9766 489.2966 522.6566 539.2766 552.5966 585.9566 615.9566 632.5766 672.5366 705.8966">ReflectPad</tspan></text>
<path transform="matrix(.001968504,0,0,.001968504,0,0)" d="M1030375 1194011.8V1194011.8C1030375 1165332.1 1053624.4 1142082.6 1082304 1142082.6H1382978C1396750.4 1142082.6 1409958.8 1147553.8 1419697.4 1157292.4 1429435.9 1167030.9 1434907 1180239.3 1434907 1194011.8V1401721.6C1434907 1430401.3 1411657.6 1453650.6 1382978 1453650.6H1082304C1053624.4 1453650.6 1030375 1430401.3 1030375 1401721.6Z" fill="#c9daf8" fill-opacity=".2278" fill-rule="evenodd"/>
<path transform="matrix(.001968504,0,0,.001968504,0,0)" stroke-width="3048" stroke-linecap="butt" stroke-linejoin="round" fill="none" stroke="#c9daf8" d="M1030375 1194011.8V1194011.8C1030375 1165332.1 1053624.4 1142082.6 1082304 1142082.6H1382978C1396750.4 1142082.6 1409958.8 1147553.8 1419697.4 1157292.4 1429435.9 1167030.9 1434907 1180239.3 1434907 1194011.8V1401721.6C1434907 1430401.3 1411657.6 1453650.6 1382978 1453650.6H1082304C1053624.4 1453650.6 1030375 1430401.3 1030375 1401721.6Z"/>
<text fill="#cfe2f3" xml:space="preserve" transform="matrix(.75 0 0 .75 2058.237 2278.1343)" font-size="65.333339" font-family="Montserrat" font-style="italic"><tspan y="67.68195" x="212.56623 266.53157 305.9929 342.2529 383.21693 427.51295 466.97428">Decoder</tspan></text>
<text fill="#cfe2f3" xml:space="preserve" transform="matrix(.75 0 0 .75 2058.237 2278.1343)" font-size="65.333339" font-family="Montserrat" font-weight="bold" font-style="italic"><tspan y="67.68195" x="493.08515 511.5745 551.0358 594.2212 642.04519 685.88388 725.3452 743.83456"> LEVEL 1</tspan></text>
<text fill="#ffffff" xml:space="preserve" transform="matrix(.75 0 0 .75 2058.237 2278.1343)" font-size="60" font-family="Arial" font-weight="bold"><tspan y="214.56195" x="127.54886 170.86887 207.46887 244.06888 277.4289 310.7289 334.0689 367.42893 404.02894 437.38896 470.74897">ConvTrans3D</tspan></text>
<text fill="#ffffff" xml:space="preserve" transform="matrix(.75 0 0 .75 2058.237 2278.1343)" font-size="60" font-family="ArialMT"><tspan y="214.56195" x="514.3262 530.94619 550.92617 584.28616 617.6461 654.2461 670.8661 730.8661 747.4861 780.84609 817.44607 837.426"> (16F &#x2192; 8F),</tspan></text>
<text fill="#ffffff" xml:space="preserve" transform="matrix(.75 0 0 .75 2058.237 2278.1343)" font-size="60" font-family="Arial" font-style="italic"><tspan y="286.56196" x="169.12113 202.48113 237.46112 270.82115 305.80116 339.16117 355.78117">2&#x00d7;2&#x00d7;2 [</tspan></text>
<text fill="#ffffff" xml:space="preserve" transform="matrix(.75 0 0 .75 2058.237 2278.1343)" font-size="60" font-family="Arial" font-weight="bold" font-style="italic"><tspan y="286.56196" x="372.6465 415.96653 452.56654 489.16654 522.52658 555.88656 575.8665 592.4865 629.0865 662.4465 695.80648 729.16647 745.78646 762.40646">Concat Level 4</tspan></text>
<text fill="#ffffff" xml:space="preserve" transform="matrix(.75 0 0 .75 2058.237 2278.1343)" font-size="60" font-family="Arial" font-style="italic"><tspan y="286.56196" x="796.1328">]</tspan></text>
<text fill="#ffffff" xml:space="preserve" transform="matrix(.75 0 0 .75 2058.237 2278.1343)" font-size="60" font-family="Arial" font-weight="bold"><tspan y="430.56196" x="207.58792 250.90793 287.50794 324.10795 357.46797 390.82798">Conv3D</tspan></text>
<text fill="#ffffff" xml:space="preserve" transform="matrix(.75 0 0 .75 2058.237 2278.1343)" font-size="60" font-family="ArialMT"><tspan y="430.56196" x="434.28715 450.90715 470.88716 504.24717 537.6072 574.20718 590.82717 650.82717 667.44717 700.8071 737.4071 757.3871"> (16F &#x2192; 8F),</tspan></text>
<text fill="#ffffff" xml:space="preserve" transform="matrix(.75 0 0 .75 2058.237 2278.1343)" font-size="60" font-family="Arial" font-style="italic"><tspan y="502.56196" x="242.4512 275.81123 310.79124 344.15126 379.13127">3&#x00d7;3&#x00d7;3</tspan></text>
<text fill="#ffffff" xml:space="preserve" transform="matrix(.75 0 0 .75 2058.237 2278.1343)" font-size="60" font-family="ArialMT"><tspan y="502.56196" x="412.63676 429.25675">, </tspan></text>
<text fill="#ffffff" xml:space="preserve" transform="matrix(.75 0 0 .75 2058.237 2278.1343)" font-size="60" font-family="Arial" font-style="italic"><tspan y="502.56196" x="445.9766 489.2966 522.6566 539.2766 552.5966 585.9566 615.9566 632.5766 672.5366 705.8966">ReflectPad</tspan></text>
<text fill="#ffffff" xml:space="preserve" transform="matrix(.75 0 0 .75 2058.237 2278.1343)" font-size="60" font-family="Arial" font-weight="bold"><tspan y="646.5619" x="224.27249 267.5925 304.1925 340.7925 374.15254 407.51255">Conv3D</tspan></text>
<text fill="#ffffff" xml:space="preserve" transform="matrix(.75 0 0 .75 2058.237 2278.1343)" font-size="60" font-family="ArialMT"><tspan y="646.5619" x="450.9717 467.5917 487.57173 520.9317 557.5317 574.1517 634.1517 650.77169 684.13168 720.7316 740.7116"> (8F &#x2192; 8F),</tspan></text>
<text fill="#ffffff" xml:space="preserve" transform="matrix(.75 0 0 .75 2058.237 2278.1343)" font-size="60" font-family="Arial" font-style="italic"><tspan y="718.5619" x="242.4512 275.81123 310.79124 344.15126 379.13127">3&#x00d7;3&#x00d7;3</tspan></text>
<text fill="#ffffff" xml:space="preserve" transform="matrix(.75 0 0 .75 2058.237 2278.1343)" font-size="60" font-family="ArialMT"><tspan y="718.5619" x="412.63676 429.25675">, </tspan></text>
<text fill="#ffffff" xml:space="preserve" transform="matrix(.75 0 0 .75 2058.237 2278.1343)" font-size="60" font-family="Arial" font-style="italic"><tspan y="718.5619" x="445.9766 489.2966 522.6566 539.2766 552.5966 585.9566 615.9566 632.5766 672.5366 705.8966">ReflectPad</tspan></text>
<path transform="matrix(.001968504,0,0,.001968504,0,0)" d="M460062.79 919629.4H981522.78" fill-opacity="0" fill-rule="evenodd"/>
<path transform="matrix(.001968504,0,0,.001968504,0,0)" stroke-width="3048" stroke-linecap="butt" stroke-dasharray="12192,9144" stroke-linejoin="round" fill="none" stroke="#d9d9d9" d="M460062.79 919629.4H963234.78"/>
<path transform="matrix(.001968504,0,0,.001968504,0,0)" d="M963234.78 924663.9 977066.9 919629.4 963234.78 914594.9Z" fill="#d9d9d9" fill-rule="evenodd"/>
<path transform="matrix(.001968504,0,0,.001968504,0,0)" stroke-width="3048" stroke-linecap="butt" stroke-miterlimit="10" stroke-linejoin="miter" fill="none" stroke="#d9d9d9" d="M963234.78 924663.9 977066.9 919629.4 963234.78 914594.9Z"/>
<path transform="matrix(.001968504,0,0,.001968504,0,0)" d="M460062.79 541397.09H981522.78" fill-opacity="0" fill-rule="evenodd"/>
<path transform="matrix(.001968504,0,0,.001968504,0,0)" stroke-width="3048" stroke-linecap="butt" stroke-dasharray="12192,9144" stroke-linejoin="round" fill="none" stroke="#d9d9d9" d="M460062.79 541397.09H963234.78"/>
<path transform="matrix(.001968504,0,0,.001968504,0,0)" d="M963234.78 546431.59 977066.9 541397.09 963234.78 536362.59Z" fill="#d9d9d9" fill-rule="evenodd"/>
<path transform="matrix(.001968504,0,0,.001968504,0,0)" stroke-width="3048" stroke-linecap="butt" stroke-miterlimit="10" stroke-linejoin="miter" fill="none" stroke="#d9d9d9" d="M963234.78 546431.59 977066.9 541397.09 963234.78 536362.59Z"/>
<path transform="matrix(.001968504,0,0,.001968504,0,0)" d="M460062.79 163164.8H981522.78" fill-opacity="0" fill-rule="evenodd"/>
<path transform="matrix(.001968504,0,0,.001968504,0,0)" stroke-width="3048" stroke-linecap="butt" stroke-dasharray="12192,9144" stroke-linejoin="round" fill="none" stroke="#d9d9d9" d="M460062.79 163164.8H963234.78"/>
<path transform="matrix(.001968504,0,0,.001968504,0,0)" d="M963234.78 168199.28 977066.9 163164.8 963234.78 158130.32Z" fill="#d9d9d9" fill-rule="evenodd"/>
<path transform="matrix(.001968504,0,0,.001968504,0,0)" stroke-width="3048" stroke-linecap="butt" stroke-miterlimit="10" stroke-linejoin="miter" fill="none" stroke="#d9d9d9" d="M963234.78 168199.28 977066.9 163164.8 963234.78 158130.32Z"/>
<path transform="matrix(.001968504,0,0,.001968504,0,0)" d="M208867.36 328584.76V375972.76" fill-opacity="0" fill-rule="evenodd"/>
<path transform="matrix(.001968504,0,0,.001968504,0,0)" stroke-width="3048" stroke-linecap="butt" stroke-linejoin="round" fill="none" stroke="#595959" d="M208867.36 328584.76V357684.76"/>
<path transform="matrix(.001968504,0,0,.001968504,0,0)" d="M203832.88 357684.76 208867.36 371516.89 213901.85 357684.76Z" fill="#595959" fill-rule="evenodd"/>
<path transform="matrix(.001968504,0,0,.001968504,0,0)" stroke-width="3048" stroke-linecap="butt" stroke-miterlimit="10" stroke-linejoin="miter" fill="none" stroke="#595959" d="M203832.88 357684.76 208867.36 371516.89 213901.85 357684.76Z"/>
<path transform="matrix(.001968504,0,0,.001968504,0,0)" d="M208867.36 706815.78V754203.78" fill-opacity="0" fill-rule="evenodd"/>
<path transform="matrix(.001968504,0,0,.001968504,0,0)" stroke-width="3048" stroke-linecap="butt" stroke-linejoin="round" fill="none" stroke="#595959" d="M208867.36 706815.78V735915.78"/>
<path transform="matrix(.001968504,0,0,.001968504,0,0)" d="M203832.88 735915.78 208867.36 749747.9 213901.85 735915.78Z" fill="#595959" fill-rule="evenodd"/>
<path transform="matrix(.001968504,0,0,.001968504,0,0)" stroke-width="3048" stroke-linecap="butt" stroke-miterlimit="10" stroke-linejoin="miter" fill="none" stroke="#595959" d="M203832.88 735915.78 208867.36 749747.9 213901.85 735915.78Z"/>
<path transform="matrix(.001968504,0,0,.001968504,0,0)" d="M1232651.5 328583.48V375971.48" fill-opacity="0" fill-rule="evenodd"/>
<path transform="matrix(.001968504,0,0,.001968504,0,0)" stroke-width="3048" stroke-linecap="butt" stroke-linejoin="round" fill="none" stroke="#595959" d="M1232651.5 346871.48V375971.48"/>
<path transform="matrix(.001968504,0,0,.001968504,0,0)" d="M1237686 346871.48 1232651.5 333039.35 1227617 346871.48Z" fill="#595959" fill-rule="evenodd"/>
<path transform="matrix(.001968504,0,0,.001968504,0,0)" stroke-width="3048" stroke-linecap="butt" stroke-miterlimit="10" stroke-linejoin="miter" fill="none" stroke="#595959" d="M1237686 346871.48 1232651.5 333039.35 1227617 346871.48Z"/>
<path transform="matrix(.001968504,0,0,.001968504,0,0)" d="M1232651.5 706815.78V754203.78" fill-opacity="0" fill-rule="evenodd"/>
<path transform="matrix(.001968504,0,0,.001968504,0,0)" stroke-width="3048" stroke-linecap="butt" stroke-linejoin="round" fill="none" stroke="#595959" d="M1232651.5 725103.78V754203.78"/>
<path transform="matrix(.001968504,0,0,.001968504,0,0)" d="M1237686 725103.78 1232651.5 711271.6 1227617 725103.78Z" fill="#595959" fill-rule="evenodd"/>
<path transform="matrix(.001968504,0,0,.001968504,0,0)" stroke-width="3048" stroke-linecap="butt" stroke-miterlimit="10" stroke-linejoin="miter" fill="none" stroke="#595959" d="M1237686 725103.78 1232651.5 711271.6 1227617 725103.78Z"/>
<path transform="matrix(.001968504,0,0,.001968504,0,0)" d="M477457 1588602V1588602C477457 1563080.4 498146.35 1542391 523667.95 1542391H911990.09C924246 1542391 935999.9 1547259.6 944666.1 1555925.9 953332.4 1564592.1 958201 1576346 958201 1588602V1773440.1C958201 1798961.6 937511.7 1819651 911990.09 1819651H523667.95C498146.35 1819651 477457 1798961.6 477457 1773440.1Z" fill="#efefef" fill-opacity=".1835" fill-rule="evenodd"/>
<path transform="matrix(.001968504,0,0,.001968504,0,0)" stroke-width="3048" stroke-linecap="butt" stroke-linejoin="round" fill="none" stroke="#d9d9d9" d="M477457 1588602V1588602C477457 1563080.4 498146.35 1542391 523667.95 1542391H911990.09C924246 1542391 935999.9 1547259.6 944666.1 1555925.9 953332.4 1564592.1 958201 1576346 958201 1588602V1773440.1C958201 1798961.6 937511.7 1819651 911990.09 1819651H523667.95C498146.35 1819651 477457 1798961.6 477457 1773440.1Z"/>
<text fill="#ffffff" xml:space="preserve" transform="matrix(.75 0 0 .75 966.5191 3062.846)" font-size="65.333339" font-family="Montserrat" font-weight="bold" font-style="italic"><tspan y="135.05408" x="364.37324 414.35325 468.84126 509.87059 550.2466 589.70797 633.54666 686.33596 730.1746 778.06399">BOTTLENECK</tspan></text>
<text fill="#ffffff" xml:space="preserve" transform="matrix(.75 0 0 .75 966.5191 3062.846)" font-size="60" font-family="Arial" font-weight="bold"><tspan y="281.93409" x="311.99946 355.31947 391.91947 428.51948 461.8795 495.2395">Conv3D</tspan></text>
<text fill="#ffffff" xml:space="preserve" transform="matrix(.75 0 0 .75 966.5191 3062.846)" font-size="60" font-family="ArialMT"><tspan y="281.93409" x="538.69869 555.31869 575.29867 608.6586 645.2586 661.8786 721.8786 738.4986 771.8586 805.21859 841.81857 861.7985"> (8F &#x2192; 16F),</tspan></text>
<text fill="#ffffff" xml:space="preserve" transform="matrix(.75 0 0 .75 966.5191 3062.846)" font-size="60" font-family="Arial" font-style="italic"><tspan y="353.93409" x="346.86274 380.22276 415.20277 448.56278 483.5428">3&#x00d7;3&#x00d7;3</tspan></text>
<text fill="#ffffff" xml:space="preserve" transform="matrix(.75 0 0 .75 966.5191 3062.846)" font-size="60" font-family="ArialMT"><tspan y="353.93409" x="517.0483 533.6683">, </tspan></text>
<text fill="#ffffff" xml:space="preserve" transform="matrix(.75 0 0 .75 966.5191 3062.846)" font-size="60" font-family="Arial" font-style="italic"><tspan y="353.93409" x="550.3881 593.7081 627.0681 643.6881 657.0081 690.3681 720.3681 736.9881 776.9481 810.3081">ReflectPad</tspan></text>
<text fill="#ffffff" xml:space="preserve" transform="matrix(.75 0 0 .75 966.5191 3062.846)" font-size="60" font-family="Arial" font-weight="bold"><tspan y="497.93409" x="295.31489 338.6349 375.2349 411.8349 445.19493 478.55494">Conv3D</tspan></text>
<text fill="#ffffff" xml:space="preserve" transform="matrix(.75 0 0 .75 966.5191 3062.846)" font-size="60" font-family="ArialMT"><tspan y="497.93409" x="522.0141 538.6341 558.6141 591.97409 625.33407 661.934 678.554 738.554 755.174 788.534 821.894 858.49398 878.47396"> (16F &#x2192; 16F),</tspan></text>
<text fill="#ffffff" xml:space="preserve" transform="matrix(.75 0 0 .75 966.5191 3062.846)" font-size="60" font-family="Arial" font-style="italic"><tspan y="569.9341" x="346.86274 380.22276 415.20277 448.56278 483.5428">3&#x00d7;3&#x00d7;3</tspan></text>
<text fill="#ffffff" xml:space="preserve" transform="matrix(.75 0 0 .75 966.5191 3062.846)" font-size="60" font-family="ArialMT"><tspan y="569.9341" x="517.0483 533.6683">, </tspan></text>
<text fill="#ffffff" xml:space="preserve" transform="matrix(.75 0 0 .75 966.5191 3062.846)" font-size="60" font-family="Arial" font-style="italic"><tspan y="569.9341" x="550.3881 593.7081 627.0681 643.6881 657.0081 690.3681 720.3681 736.9881 776.9481 810.3081">ReflectPad</tspan></text>
<path transform="matrix(.001968504,0,0,.001968504,0,0)" d="M208867.36 1085048V1132436" fill-opacity="0" fill-rule="evenodd"/>
<path transform="matrix(.001968504,0,0,.001968504,0,0)" stroke-width="3048" stroke-linecap="butt" stroke-linejoin="round" fill="none" stroke="#595959" d="M208867.36 1085048V1114148"/>
<path transform="matrix(.001968504,0,0,.001968504,0,0)" d="M203832.88 1114148 208867.36 1127980.1 213901.85 1114148Z" fill="#595959" fill-rule="evenodd"/>
<path transform="matrix(.001968504,0,0,.001968504,0,0)" stroke-width="3048" stroke-linecap="butt" stroke-miterlimit="10" stroke-linejoin="miter" fill="none" stroke="#595959" d="M203832.88 1114148 208867.36 1127980.1 213901.85 1114148Z"/>
<path transform="matrix(.001968504,0,0,.001968504,0,0)" d="M1232651.5 1085048V1132436" fill-opacity="0" fill-rule="evenodd"/>
<path transform="matrix(.001968504,0,0,.001968504,0,0)" stroke-width="3048" stroke-linecap="butt" stroke-linejoin="round" fill="none" stroke="#595959" d="M1232651.5 1103336V1132436"/>
<path transform="matrix(.001968504,0,0,.001968504,0,0)" d="M1237686 1103336 1232651.5 1089503.9 1227617 1103336Z" fill="#595959" fill-rule="evenodd"/>
<path transform="matrix(.001968504,0,0,.001968504,0,0)" stroke-width="3048" stroke-linecap="butt" stroke-miterlimit="10" stroke-linejoin="miter" fill="none" stroke="#595959" d="M1237686 1103336 1232651.5 1089503.9 1227617 1103336Z"/>
<path transform="matrix(.001968504,0,0,.001968504,0,0)" d="M208867.36 1477079.4 452551.39 1696811.4" fill-opacity="0" fill-rule="evenodd"/>
<path transform="matrix(.001968504,0,0,.001968504,0,0)" stroke-width="3048" stroke-linecap="butt" stroke-linejoin="round" fill="none" stroke="#595959" d="M208867.36 1477079.4 438969.57 1684564.5"/>
<path transform="matrix(.001968504,0,0,.001968504,0,0)" d="M435598.14 1688303.5 449242.17 1693827.4 442340.98 1680825.6Z" fill="#595959" fill-rule="evenodd"/>
<path transform="matrix(.001968504,0,0,.001968504,0,0)" stroke-width="3048" stroke-linecap="butt" stroke-miterlimit="10" stroke-linejoin="miter" fill="none" stroke="#595959" d="M435598.14 1688303.5 449242.17 1693827.4 442340.98 1680825.6Z"/>
<path transform="matrix(.001968504,0,0,.001968504,0,0)" d="M1219588.3 1482453.8 983164.28 1691445.8" fill-opacity="0" fill-rule="evenodd"/>
<path transform="matrix(.001968504,0,0,.001968504,0,0)" stroke-width="3048" stroke-linecap="butt" stroke-linejoin="round" fill="none" stroke="#595959" d="M1205886.3 1494566 983164.28 1691445.8"/>
<path transform="matrix(.001968504,0,0,.001968504,0,0)" d="M1209220.6 1498338 1216249.8 1485404.9 1202551.9 1490793.9Z" fill="#595959" fill-rule="evenodd"/>
<path transform="matrix(.001968504,0,0,.001968504,0,0)" stroke-width="3048" stroke-linecap="butt" stroke-miterlimit="10" stroke-linejoin="miter" fill="none" stroke="#595959" d="M1209220.6 1498338 1216249.8 1485404.9 1202551.9 1490793.9Z"/>
<path transform="matrix(.001968504,0,0,.001968504,0,0)" d="M485593.48 94522.738H955897.5V136066.74H485593.48Z" fill-opacity="0" fill-rule="evenodd"/>
<text fill="#d9d9d9" xml:space="preserve" transform="matrix(.75 0 0 .75 955.8927 186.06838)" font-size="60" font-family="Arial" font-style="italic"><tspan y="66.6" x="275.34626 315.30625 345.30625 358.62626 391.98628 408.60627 438.60627 471.96629 505.3263 538.6863 572.04629 602.04629 618.66629 631.98629 665.34628 698.70626">Skip connection </tspan></text>
<text fill="#d9d9d9" xml:space="preserve" transform="matrix(.75 0 0 .75 955.8927 186.06838)" font-size="60" font-family="Arial" font-weight="bold" font-style="italic"><tspan y="66.6" x="715.6197 735.5997 772.19967 805.55966 838.9196 872.2796 888.8996 905.5196 938.8796">(Level 1)</tspan></text>
<path transform="matrix(.001968504,0,0,.001968504,0,0)" d="M485593.48 481189.26H955897.5V528577.28H485593.48Z" fill-opacity="0" fill-rule="evenodd"/>
<text fill="#d9d9d9" xml:space="preserve" transform="matrix(.75 0 0 .75 955.8927 947.2229)" font-size="60" font-family="Arial" font-style="italic"><tspan y="66.6" x="275.34626 315.30625 345.30625 358.62626 391.98628 408.60627 438.60627 471.96629 505.3263 538.6863 572.04629 602.04629 618.66629 631.98629 665.34628 698.70626">Skip connection </tspan></text>
<text fill="#d9d9d9" xml:space="preserve" transform="matrix(.75 0 0 .75 955.8927 947.2229)" font-size="60" font-family="Arial" font-weight="bold" font-style="italic"><tspan y="66.6" x="715.6197 735.5997 772.19967 805.55966 838.9196 872.2796 888.8996 905.5196 938.8796">(Level 2)</tspan></text>
<path transform="matrix(.001968504,0,0,.001968504,0,0)" d="M485594.8 859564.78H955898.8V906952.78H485594.8Z" fill-opacity="0" fill-rule="evenodd"/>
<text fill="#d9d9d9" xml:space="preserve" transform="matrix(.75 0 0 .75 955.8953 1692.0567)" font-size="60" font-family="Arial" font-style="italic"><tspan y="66.6" x="275.34626 315.30625 345.30625 358.62626 391.98628 408.60627 438.60627 471.96629 505.3263 538.6863 572.04629 602.04629 618.66629 631.98629 665.34628 698.70626">Skip connection </tspan></text>
<text fill="#d9d9d9" xml:space="preserve" transform="matrix(.75 0 0 .75 955.8953 1692.0567)" font-size="60" font-family="Arial" font-weight="bold" font-style="italic"><tspan y="66.6" x="715.6197 735.5997 772.19967 805.55966 838.9196 872.2796 888.8996 905.5196 938.8796">(Level 3)</tspan></text>
<path transform="matrix(.001968504,0,0,.001968504,0,0)" d="M485593.48 1239121.1H955897.5V1286509.1H485593.48Z" fill-opacity="0" fill-rule="evenodd"/>
<text fill="#d9d9d9" xml:space="preserve" transform="matrix(.75 0 0 .75 955.8927 2439.2149)" font-size="60" font-family="Arial" font-style="italic"><tspan y="66.6" x="275.34626 315.30625 345.30625 358.62626 391.98628 408.60627 438.60627 471.96629 505.3263 538.6863 572.04629 602.04629 618.66629 631.98629 665.34628 698.70626">Skip connection </tspan></text>
<text fill="#d9d9d9" xml:space="preserve" transform="matrix(.75 0 0 .75 955.8927 2439.2149)" font-size="60" font-family="Arial" font-weight="bold" font-style="italic"><tspan y="66.6" x="715.6197 735.5997 772.19967 805.55966 838.9196 872.2796 888.8996 905.5196 938.8796">(Level 4)</tspan></text>
</g>
</g>
</svg>
